<mxfile host="app.diagrams.net" modified="2024-08-02T02:35:04.716Z" agent="Mozilla/5.0 (Windows NT 10.0; Win64; x64) AppleWebKit/537.36 (KHTML, like Gecko) Chrome/127.0.0.0 Safari/537.36" version="22.1.18" etag="_f9umWNJvjMXjmt_w6qG" type="github">
  <diagram name="第 1 页" id="0rrZKfHWEl6AU2EqBibR">
    <mxGraphModel>
      <root>
        <mxCell id="0" />
        <mxCell id="1" parent="0" />
      </root>
    </mxGraphModel>
  </diagram>
</mxfile>
